<?xml version="1.0" encoding="UTF-8" standalone="no"?>
<!DOCTYPE svg PUBLIC "-//W3C//DTD SVG 1.1//EN" "http://www.w3.org/Graphics/SVG/1.1/DTD/svg11.dtd">
<svg width="100%" height="100%" viewBox="0 0 2048 2048" version="1.1" xmlns="http://www.w3.org/2000/svg" xmlns:xlink="http://www.w3.org/1999/xlink" xml:space="preserve" xmlns:serif="http://www.serif.com/" style="fill-rule:evenodd;clip-rule:evenodd;stroke-linejoin:round;stroke-miterlimit:2;">
    <g id="Softwares">
        <g id="Houdini">
            <g transform="matrix(4.096,0,0,4.096,0,0)">
                <path d="M0,409.03L0,500.01L79.64,500.01C40.95,477.98 13.61,444.5 0,409.03Z" style="fill:rgb(255,102,0);fill-rule:nonzero;"/>
            </g>
            <g transform="matrix(4.096,0,0,4.096,0,0)">
                <path d="M334.21,314.15C334.1,230.09 266.63,149.15 165.23,145.65C93.39,143.17 37.49,169.52 0,208.45L0,296.21C25.49,222.58 95.73,188.8 154.58,189.39C228.1,190.13 284.81,245.58 285.14,308.26C285.46,368.17 260.36,412.27 192.62,423.14C155.69,429.07 97.89,407.41 100.46,351.61C101.79,322.84 124.19,306.59 149.87,307.77C124.75,341.43 158.01,366.11 181.53,361.08C210.64,354.86 222.5,329.01 222.5,308.95C222.5,287.8 202.57,253.63 153.1,254.8C91.88,256.25 53.36,300.29 52.06,354.73C50.43,423.29 114.55,468.35 180.37,469.17C277,470.37 334.33,406.98 334.2,314.15L334.21,314.15Z" style="fill:rgb(255,102,0);fill-rule:nonzero;"/>
            </g>
            <g transform="matrix(4.096,0,0,4.096,0,0)">
                <path d="M0,0L0,143.85C43,110.85 98.96,89.5 165.23,89.54C307.1,89.62 397.17,188.75 397.13,313.81C397.1,400.69 356.56,466.02 293.08,500.01L500,500.01L500,0L0,0Z" style="fill:rgb(255,102,0);fill-rule:nonzero;"/>
            </g>
        </g>
    </g>
</svg>
