<?xml version="1.0" encoding="UTF-8" standalone="no"?>
<!DOCTYPE svg PUBLIC "-//W3C//DTD SVG 1.1//EN" "http://www.w3.org/Graphics/SVG/1.1/DTD/svg11.dtd">
<svg width="100%" height="100%" viewBox="0 0 2048 2048" version="1.1" xmlns="http://www.w3.org/2000/svg" xmlns:xlink="http://www.w3.org/1999/xlink" xml:space="preserve" xmlns:serif="http://www.serif.com/" style="fill-rule:evenodd;clip-rule:evenodd;stroke-linejoin:round;stroke-miterlimit:2;">
    <g id="Softwares">
        <g id="Id">
            <g transform="matrix(8.53333,0,0,8.75214,0,-2.20268e-13)">
                <rect x="0" y="0" width="240" height="234" style="fill:rgb(73,2,31);fill-rule:nonzero;"/>
            </g>
            <g id="vlpb" transform="matrix(8.53333,0,0,8.53333,0,67.033)">
                <path d="M87.2,61.2L87.2,164.2C87.2,165.3 86.7,165.8 85.8,165.8L66.2,165.8C65.3,165.8 64.9,165.3 64.9,164.2L64.9,61.2C64.9,60.3 65.4,59.9 66.3,59.9L85.8,59.9C86.4,59.8 87,60.2 87.1,60.9C87.2,61 87.2,61.1 87.2,61.2Z" style="fill:rgb(255,51,102);fill-rule:nonzero;"/>
                <path d="M145,167C137.6,167.1 130.2,165.6 123.5,162.5C117.2,159.6 112,154.8 108.4,148.9C104.7,142.8 102.9,135.2 102.9,126.1C102.8,118.7 104.7,111.4 108.4,105C112.2,98.5 117.7,93.1 124.3,89.5C131.3,85.6 139.7,83.7 149.6,83.7C150.1,83.7 150.8,83.7 151.7,83.8C152.6,83.9 153.6,83.9 154.8,84L154.8,52.4C154.8,51.7 155.1,51.3 155.8,51.3L176.1,51.3C176.6,51.2 177,51.6 177.1,52L177.1,147.4C177.1,149.2 177.2,151.2 177.3,153.4C177.5,155.5 177.6,157.5 177.7,159.2C177.7,159.9 177.4,160.5 176.7,160.8C171.5,163 166,164.6 160.4,165.6C155.4,166.5 150.2,167 145,167ZM154.8,147L154.8,103C153.9,102.8 153,102.6 152.1,102.5C151,102.4 149.9,102.3 148.8,102.3C144.9,102.3 141,103.1 137.5,104.9C134.1,106.6 131.2,109.1 129,112.3C126.8,115.5 125.7,119.8 125.7,125C125.6,128.5 126.2,132 127.4,135.3C128.4,138 129.9,140.4 131.9,142.4C133.8,144.2 136.1,145.6 138.7,146.4C141.4,147.3 144.2,147.7 147,147.7C148.5,147.7 149.9,147.6 151.2,147.5C152.5,147.6 153.7,147.4 154.8,147Z" style="fill:rgb(255,51,102);fill-rule:nonzero;"/>
            </g>
        </g>
    </g>
</svg>
