<?xml version="1.0" encoding="UTF-8" standalone="no"?>
<!DOCTYPE svg PUBLIC "-//W3C//DTD SVG 1.1//EN" "http://www.w3.org/Graphics/SVG/1.1/DTD/svg11.dtd">
<svg width="100%" height="100%" viewBox="0 0 2048 2048" version="1.1" xmlns="http://www.w3.org/2000/svg" xmlns:xlink="http://www.w3.org/1999/xlink" xml:space="preserve" xmlns:serif="http://www.serif.com/" style="fill-rule:evenodd;clip-rule:evenodd;stroke-linejoin:round;stroke-miterlimit:2;">
    <g id="Softwares">
        <g id="VRay">
            <g transform="matrix(-7.52941,0,0,7.52941,3132.24,-481.882)">
                <rect x="144" y="64" width="272" height="272" style="fill:rgb(40,87,175);"/>
            </g>
            <g transform="matrix(7.52941,0,0,7.52941,835.419,372.058)">
                <path d="M0,115.713C1.813,118.319 3.967,119.793 5.78,119.68C7.934,119.567 10.313,117.413 12.127,114.127C17.907,103.359 21.646,92.819 25.274,82.733C30.374,68.453 35.587,53.72 46.127,39.779C57.233,25.273 74.8,19.607 81.26,18.02C82.28,17.793 82.507,16.546 81.714,15.867C66.073,3.4 46.467,-4.08 25.047,-4.08C14.506,-4.08 4.42,-2.267 -4.986,1.02C-16.546,5.1 -24.366,15.98 -24.707,28.22C-25.046,52.02 -21.306,85.907 0,115.713" style="fill:white;fill-rule:nonzero;"/>
            </g>
            <g transform="matrix(7.52941,0,0,7.52941,1470.3,1756.16)">
                <path d="M0,-144.839C-9.633,-143.593 -16.773,-136.679 -20.967,-131.126C-29.467,-119.793 -33.773,-107.893 -38.76,-93.953C-42.727,-83.073 -46.693,-71.739 -53.267,-59.5C-58.707,-49.413 -67.433,-39.099 -77.18,-38.42L-78.767,-38.42C-87.606,-38.42 -96.106,-47.259 -102,-55.646C-123.873,-86.359 -129.993,-119.906 -130.673,-145.859C-130.673,-148.239 -133.733,-149.033 -135.093,-147.106C-148.013,-128.293 -154.02,-101.999 -147.333,-75.479C-138.833,-41.592 -111.407,-16.092 -79.9,-9.066C-20.967,4.194 31.28,-40.686 31.28,-97.466C31.28,-108.913 29.127,-119.793 25.273,-129.879C22.439,-137.246 16.207,-142.913 8.5,-144.613C5.78,-145.067 2.833,-145.179 0,-144.839" style="fill:white;fill-rule:nonzero;"/>
            </g>
        </g>
    </g>
</svg>
