<?xml version="1.0" encoding="UTF-8" standalone="no"?>
<!DOCTYPE svg PUBLIC "-//W3C//DTD SVG 1.1//EN" "http://www.w3.org/Graphics/SVG/1.1/DTD/svg11.dtd">
<svg width="100%" height="100%" viewBox="0 0 2048 2048" version="1.1" xmlns="http://www.w3.org/2000/svg" xmlns:xlink="http://www.w3.org/1999/xlink" xml:space="preserve" xmlns:serif="http://www.serif.com/" style="fill-rule:evenodd;clip-rule:evenodd;stroke-linejoin:round;stroke-miterlimit:2;">
    <g id="Ds" transform="matrix(1,0,0,1,0,25.5965)">
        <g id="Softwares">
            <g id="Ds1" serif:id="Ds">
                <g transform="matrix(3.99633,0,0,4.09879,0,-25.5965)">
                    <rect x="0" y="0" width="512.47" height="499.66" style="fill:rgb(30,49,1);"/>
                </g>
                <g transform="matrix(3.99633,0,0,3.99633,0,0)">
                    <path d="M94.15,349.71L94.15,131.06C94.142,130.977 94.137,130.893 94.137,130.809C94.137,129.527 95.124,128.442 96.4,128.32L96.56,128.32C99.99,128.09 105.04,127.92 111.68,127.8C118.32,127.68 126.12,127.58 135.06,127.46C144,127.34 153.51,127.29 163.59,127.29C191.097,127.29 213.903,131.987 232.01,141.38C249.168,149.883 263.369,163.366 272.75,180.06C281.803,196.447 286.327,215.297 286.32,236.61C286.599,251.519 284.228,266.36 279.32,280.44C274.991,292.493 268.437,303.626 260,313.26C252.032,322.29 242.691,330.008 232.32,336.13C222.038,342.193 210.918,346.708 199.32,349.53C187.962,352.358 176.304,353.801 164.6,353.83L139,353.83C129.953,353.83 121.533,353.773 113.74,353.66C105.947,353.547 100.1,353.373 96.2,353.14C94.84,353.14 94.15,352 94.15,349.71ZM141.59,169.56L141.59,311.89C144.11,311.89 146.403,311.947 148.47,312.06L154.83,312.4C157,312.52 159.47,312.58 162.22,312.58C172.619,312.71 182.965,311.08 192.82,307.76C201.644,304.765 209.687,299.834 216.36,293.33C223.08,286.624 228.246,278.522 231.49,269.6C235.19,259.344 236.996,248.501 236.82,237.6C237.03,227.337 235.279,217.127 231.66,207.52C228.438,199.231 223.317,191.812 216.71,185.86C209.955,179.91 201.972,175.519 193.33,173C183.674,170.168 173.652,168.78 163.59,168.88C159.01,168.88 155.17,168.93 152.08,169.05C148.99,169.17 145.49,169.34 141.59,169.56Z" style="fill:rgb(153,232,63);fill-rule:nonzero;"/>
                </g>
                <g transform="matrix(3.99633,0,0,3.99633,0,0)">
                    <path d="M421.43,227C414.977,223.677 408.105,221.242 401,219.76C393.154,217.956 385.131,217.03 377.08,217C372.728,216.889 368.382,217.411 364.18,218.55C361.511,219.15 359.137,220.673 357.48,222.85C356.359,224.591 355.761,226.619 355.76,228.69C355.827,230.699 356.55,232.632 357.82,234.19C359.831,236.538 362.284,238.468 365.04,239.87C369.944,242.493 374.996,244.831 380.17,246.87C391.709,250.75 402.733,256.018 413,262.56C419.997,266.971 425.788,273.055 429.85,280.26C433.268,287.082 434.984,294.631 434.85,302.26C435.059,312.336 432.18,322.238 426.6,330.63C420.628,339.145 412.335,345.769 402.71,349.71C392.237,354.29 379.333,356.58 364,356.58C354.264,356.677 344.544,355.756 335,353.83C327.794,352.469 320.799,350.159 314.2,346.96C312.671,346.165 311.733,344.552 311.8,342.83L311.8,305.7C311.712,304.96 312.044,304.23 312.66,303.81C313.263,303.472 314.017,303.54 314.55,303.98C322.411,308.829 331.006,312.372 340,314.47C348.179,316.521 356.569,317.615 365,317.73C373,317.73 378.903,316.7 382.71,314.64C386.193,313.044 388.421,309.531 388.38,305.7C388.38,302.733 386.663,299.87 383.23,297.11C379.797,294.35 372.797,291.017 362.23,287.11C351.437,283.352 341.204,278.148 331.81,271.64C325.093,266.962 319.56,260.781 315.65,253.59C312.263,246.818 310.548,239.331 310.65,231.76C310.675,222.66 313.22,213.743 318,206C323.4,197.453 331.16,190.648 340.34,186.41C350.42,181.37 363.027,178.85 378.16,178.85C387.02,178.774 395.871,179.406 404.63,180.74C410.8,181.538 416.822,183.222 422.51,185.74C423.455,186.011 424.219,186.712 424.57,187.63C424.803,188.47 424.917,189.338 424.91,190.21L424.91,224.93C424.966,225.747 424.585,226.536 423.91,227C423.159,227.493 422.181,227.493 421.43,227Z" style="fill:rgb(153,232,63);fill-rule:nonzero;"/>
                </g>
            </g>
        </g>
    </g>
</svg>
