<?xml version="1.0" encoding="UTF-8" standalone="no"?>
<!DOCTYPE svg PUBLIC "-//W3C//DTD SVG 1.1//EN" "http://www.w3.org/Graphics/SVG/1.1/DTD/svg11.dtd">
<svg width="100%" height="100%" viewBox="0 0 2048 2048" version="1.1" xmlns="http://www.w3.org/2000/svg" xmlns:xlink="http://www.w3.org/1999/xlink" xml:space="preserve" xmlns:serif="http://www.serif.com/" style="fill-rule:evenodd;clip-rule:evenodd;stroke-linejoin:round;stroke-miterlimit:2;">
    <g id="_3DSMax" serif:id="3DSMax" transform="matrix(1,0,0,1,59,0)">
        <g id="Softwares">
            <g id="_3DSMax1" serif:id="3DSMax">
                <g id="f4610f65-bed3-4813-b859-58bff24280ca" transform="matrix(2,0,0,2,0,8.25082e-31)">
                    <g id="a6c242a4-082b-436e-8a19-3d7c91a8c883" transform="matrix(1,0,0,1,-29,0)">
                        <path d="M185,0.15L915,160L994,160L994,1024L166,1024C137.474,1024 114,1000.53 114,972L114,754.292L183.466,2.411L185,0.15Z" style="fill:rgb(54,105,127);fill-rule:nonzero;"/>
                    </g>
                    <path id="a231b97d-b560-4df8-b148-745cea8da968" d="M156,0L842,0C870.526,-0 894,23.474 894,52L894,720L156,720L156,0Z" style="fill:rgb(55,165,204);fill-rule:nonzero;"/>
                    <path id="bd221504-135d-4091-b1cf-5d97db5bd14a" d="M0,814L156,720L156,0L0,94L0,814Z" style="fill:rgb(125,198,221);fill-rule:nonzero;"/>
                </g>
                <g id="b1d3772d-cee8-417e-a251-56a853e47b5a" transform="matrix(2,0,0,2,0,8.25082e-31)">
                    <g transform="matrix(1,0,0,1,-29,0)">
                        <path d="M485.846,790.925L485.846,942.127L449.99,942.127L449.99,844.493L424.718,941.911L424.718,942.127L389.077,942.127L362.293,840.606L362.293,942.127L329.893,942.127L329.893,790.925L377.413,790.925L407.87,912.318L439.839,791.356L439.622,790.925L485.846,790.925Z" style="fill:white;fill-rule:nonzero;"/>
                    </g>
                    <g transform="matrix(1,0,0,1,-29,0)">
                        <path d="M596.61,909.078L551.249,909.078L542.825,942.127L505.241,942.127L548.441,790.925L598.771,790.925L644.347,942.127L605.898,942.127L596.61,909.078ZM573.498,815.766L558.161,880.998L589.267,880.998L573.498,815.766Z" style="fill:white;fill-rule:nonzero;"/>
                    </g>
                    <g transform="matrix(1,0,0,1,-29,0)">
                        <path d="M797.769,942.127L755.216,942.127L726.056,885.102L696.463,942.127L654.99,942.127L702.727,862.205L659.958,790.925L701.215,790.925L726.703,839.094L726.919,839.094L753.055,790.925L793.016,790.925L750.032,858.966L797.769,942.127Z" style="fill:white;fill-rule:nonzero;"/>
                    </g>
                </g>
                <g transform="matrix(2,0,0,2,-58,8.25082e-31)">
                    <g id="b4ac42dd-1755-46cf-8e31-8f1593ab4882">
                        <path d="M392.693,451.826L486.175,451.826C489.025,475.766 505.555,498.566 545.455,498.566C580.225,498.566 603.026,482.036 603.026,446.126L603.026,434.155C603.026,390.835 559.706,383.425 531.205,383.425L500.425,383.425L500.425,316.734L531.205,316.734C559.706,316.734 588.776,307.614 588.776,274.553L588.776,260.873C588.776,234.653 571.105,221.543 542.035,221.543C508.405,221.543 493.014,242.633 490.734,267.714L397.254,267.714C400.104,206.723 453.114,152.003 547.736,152.003C628.677,152.003 686.818,193.043 686.818,251.754L686.818,273.414C686.818,307.044 654.897,336.115 615.567,345.235C654.897,352.075 702.207,378.865 702.207,430.736L702.207,457.526C702.207,521.937 637.797,569.248 550.585,569.248C438.864,569.247 398.964,510.536 392.693,451.826Z" style="fill:white;fill-rule:nonzero;"/>
                    </g>
                </g>
            </g>
        </g>
    </g>
</svg>
