<?xml version="1.0" encoding="UTF-8" standalone="no"?>
<!DOCTYPE svg PUBLIC "-//W3C//DTD SVG 1.1//EN" "http://www.w3.org/Graphics/SVG/1.1/DTD/svg11.dtd">
<svg width="100%" height="100%" viewBox="0 0 2048 2048" version="1.1" xmlns="http://www.w3.org/2000/svg" xmlns:xlink="http://www.w3.org/1999/xlink" xml:space="preserve" xmlns:serif="http://www.serif.com/" style="fill-rule:evenodd;clip-rule:evenodd;stroke-linejoin:round;stroke-miterlimit:2;">
    <g id="Zbrush" transform="matrix(15.4086,0,0,15.4086,-157.167,-109.318)">
        <g id="Softwares">
            <path id="Zbrush1" serif:id="Zbrush" d="M85.5,59.8C78.7,55.6 72.6,50.4 64.9,48.2C59.3,46.6 54.6,49.1 50,51.8C46,54.1 43.3,57.3 43.7,62.3C43.8,63.9 43,65.1 41.6,66C37.3,68.8 32.7,70.5 27.7,71.6C26.7,71.8 25.6,71.9 24.9,70.9C24,69.7 24.7,68.5 25.3,67.5C28.6,61.7 33,56.8 37.9,52.3C45.3,45.5 53.8,40.8 64,39.6C72.7,38.5 81,40.5 89.1,43.8C92.2,45.1 95.4,46.3 98.5,47.6C99.8,48.1 100.9,48 102.1,47.2C105.6,44.8 109,42.3 113.3,41.5C116.2,41 118.9,41.6 121.4,43.1C124.5,45 125.5,48.7 123.4,52C119.1,58.6 113.4,63.7 105.5,65.8C101.3,66.9 97.3,65.8 93.5,64.1C92.8,63.8 92.1,63.6 91.3,63.2C86,68.1 81.4,73.5 76.7,79.3C81.2,79.3 85.3,79.8 89.2,80.8C109.9,86.3 126.3,97.5 137.4,116.1C139.6,119.8 141.6,123.7 142.8,127.9C143.1,129.1 143.5,130.4 142.3,131.3C141.2,132.1 139.9,131.8 138.8,131.2C132.5,127.7 126.3,123.9 121.2,118.6C119.3,116.6 118.5,114.4 119.6,111.5C120.6,108.9 119.8,106.6 117.7,104.8C113.9,101.4 109.2,99.6 104.4,98.3C92.5,95 80,93.5 67.4,93.8C65.8,93.8 64.6,94.3 63.4,95.6C53.1,107.5 41.3,117.6 26.5,123.7C22.4,125.4 18.3,126.3 13.8,126.2C11.1,126.1 10.2,125.1 10.2,122.5C10.2,120.5 10.8,118.8 11.8,117.1C16.9,108.6 24.2,102.1 32.4,96.7C42.8,89.8 53.7,84.1 65.8,80.9C66.4,80.7 66.9,80.4 67.2,80C72.5,73.1 78.2,66.5 84.8,60.7C85,60.5 85.2,60.2 85.5,59.8ZM54.9,95.3C44.6,97.7 35.5,100.9 27.3,106.5C24,108.7 21.3,111.5 19.6,115.2C19,116.4 18.6,117.7 19.3,119C20.9,119.8 22.5,119.4 24.1,118.8C26.6,118 28.9,116.8 31.1,115.5C39.9,110.2 47.5,103.4 54.9,95.3ZM119.9,48.2C117.7,46.3 110.1,47.7 107.7,50.5C112.5,52.2 118.6,51.1 119.9,48.2ZM90,36.9C83.2,37 78.8,33.9 77.7,28.8C76.8,24.6 79.9,19.1 84.6,16.4C88,14.5 91.8,15.1 95.3,18.2C98.6,21.2 100.8,24.9 101.9,29.2C102.9,33.1 101.4,35.3 97.5,36.1C94.9,36.7 92.1,36.8 90,36.9Z" style="fill:white;fill-rule:nonzero;"/>
        </g>
    </g>
</svg>
