<?xml version="1.0" encoding="UTF-8" standalone="no"?>
<!DOCTYPE svg PUBLIC "-//W3C//DTD SVG 1.1//EN" "http://www.w3.org/Graphics/SVG/1.1/DTD/svg11.dtd">
<svg width="100%" height="100%" viewBox="0 0 2048 2048" version="1.1" xmlns="http://www.w3.org/2000/svg" xmlns:xlink="http://www.w3.org/1999/xlink" xml:space="preserve" xmlns:serif="http://www.serif.com/" style="fill-rule:evenodd;clip-rule:evenodd;stroke-linejoin:round;stroke-miterlimit:2;">
    <g id="Maya" transform="matrix(1,0,0,1,0,87.9304)">
        <g id="Softwares">
            <g id="Maya1" serif:id="Maya">
                <g transform="matrix(16.0492,0,0,16.0492,-16.3038,-18.9144)">
                    <path d="M1.085,13.71C7.965,9.565 14.831,5.388 21.74,1.29C21.755,33.017 21.704,64.744 21.766,96.472C18.635,98.417 15.451,100.272 12.313,102.196C8.567,104.432 4.85,106.718 1.096,108.935C1.071,77.193 1.092,45.452 1.085,13.71Z" style="fill:rgb(125,198,221);fill-rule:nonzero;"/>
                </g>
                <g transform="matrix(16.0492,0,0,16.0492,-16.3038,-18.9144)">
                    <path d="M21.74,1.29C51.837,1.239 81.938,1.283 112.038,1.268C115.756,1.043 119.245,4.217 119.259,7.96C119.328,12.884 119.266,17.811 119.288,22.738C119.281,47.31 119.303,71.878 119.277,96.45C86.775,96.486 54.268,96.443 21.766,96.472C21.704,64.744 21.755,33.017 21.74,1.29M43.214,22.546C43.189,40.151 43.211,57.755 43.203,75.36L54.616,75.36C54.62,63.701 54.616,52.042 54.616,40.383C57.826,52.006 60.757,63.712 63.877,75.36C68.011,75.367 72.148,75.346 76.282,75.371C79.26,64.219 82.119,53.031 85.126,41.883C85.162,53.042 85.126,64.201 85.141,75.356C89.336,75.364 93.532,75.36 97.727,75.36C97.749,57.77 97.698,40.18 97.753,22.59C92.361,22.507 86.967,22.575 81.575,22.554C77.909,36.586 74.203,50.607 70.478,64.621C66.888,50.614 63.438,36.571 59.891,22.554C54.33,22.546 48.772,22.561 43.214,22.546Z" style="fill:rgb(55,165,204);fill-rule:nonzero;"/>
                </g>
                <g transform="matrix(16.0492,0,0,16.0492,-16.3038,-18.9144)">
                    <path d="M43.214,22.546C48.772,22.561 54.33,22.546 59.891,22.554C63.438,36.571 66.888,50.614 70.478,64.621C74.203,50.607 77.909,36.586 81.575,22.554C86.967,22.575 92.361,22.507 97.753,22.59C97.698,40.18 97.749,57.77 97.727,75.36C93.532,75.36 89.336,75.364 85.141,75.356C85.126,64.201 85.162,53.042 85.126,41.883C82.119,53.031 79.26,64.219 76.282,75.371C72.148,75.346 68.011,75.367 63.877,75.36C60.757,63.712 57.826,52.006 54.616,40.383C54.616,52.042 54.62,63.701 54.616,75.36L43.203,75.36C43.211,57.755 43.189,40.151 43.214,22.546Z" style="fill:white;fill-rule:nonzero;"/>
                </g>
                <g transform="matrix(16.0492,0,0,16.0492,-16.3038,-18.9144)">
                    <path d="M119.288,22.738C122.397,22.735 125.505,22.735 128.618,22.738C128.599,54.408 128.657,86.081 128.589,117.75L19.436,117.75C18.139,117.569 16.795,117.37 15.661,116.667C13.636,115.489 12.299,113.203 12.317,110.852C12.302,107.968 12.331,105.08 12.313,102.196C15.451,100.272 18.635,98.417 21.766,96.472C54.268,96.443 86.775,96.486 119.277,96.45C119.303,71.878 119.281,47.31 119.288,22.738Z" style="fill:rgb(54,105,127);fill-rule:nonzero;"/>
                </g>
            </g>
        </g>
    </g>
</svg>
