<?xml version="1.0" encoding="UTF-8" standalone="no"?>
<!DOCTYPE svg PUBLIC "-//W3C//DTD SVG 1.1//EN" "http://www.w3.org/Graphics/SVG/1.1/DTD/svg11.dtd">
<svg width="100%" height="100%" viewBox="0 0 2048 2048" version="1.1" xmlns="http://www.w3.org/2000/svg" xmlns:xlink="http://www.w3.org/1999/xlink" xml:space="preserve" xmlns:serif="http://www.serif.com/" style="fill-rule:evenodd;clip-rule:evenodd;stroke-linejoin:round;stroke-miterlimit:2;">
    <g id="Softwares">
        <g id="Lr">
            <g transform="matrix(7.98752,0,0,8.192,0,-2.02505e-13)">
                <rect x="0" y="0" width="256.4" height="250" style="fill:rgb(0,30,54);fill-rule:nonzero;"/>
            </g>
            <g id="Lr1" serif:id="Lr" transform="matrix(7.98752,0,0,7.98752,0,36.354)">
                <path d="M134.6,176.7L66.9,176.7C65.7,176.7 65.2,176.1 65.2,174.8L65.2,65.6C65.1,64.9 65.6,64.2 66.4,64.1L87.7,64.1C88.2,64 88.9,64.4 88.9,65L88.9,155L138.3,155C139.4,155 139.7,155.5 139.5,156.5L136.4,175.1C136.4,175.6 136.1,176.1 135.8,176.4C135.4,176.6 135,176.7 134.6,176.7Z" style="fill:rgb(49,168,255);fill-rule:nonzero;"/>
                <path d="M151.7,91.2L170.4,91.2C171.5,91.2 172.3,91.9 172.6,92.9C173,93.6 173.3,94.5 173.5,95.4C173.7,96.5 173.9,97.6 174,98.7C174.1,99.9 174.2,101.2 174.2,102.5C177.4,98.8 181.3,95.7 185.6,93.3C190.5,90.6 196,89.3 201.5,89.5C202.2,89.4 202.9,89.9 203,90.7L203,112C203,112.9 202.5,113.2 201.3,113.2C194.4,112.8 187.4,114.1 181.1,116.8C179,117.8 176.9,119 175.3,120.8L175.3,175.3C175.3,176.4 174.9,176.8 173.9,176.8L153.1,176.8C152.2,176.9 151.5,176.4 151.4,175.5L151.4,115.9C151.4,113.3 151.4,110.7 151.3,107.9C151.2,105.1 151.2,102.3 151.1,99.6C151,97.2 150.8,94.9 150.5,92.5C150.4,92 150.7,91.4 151.2,91.3C151.4,91.1 151.5,91.1 151.7,91.2Z" style="fill:rgb(49,168,255);fill-rule:nonzero;"/>
            </g>
        </g>
    </g>
</svg>
