<?xml version="1.0" encoding="UTF-8" standalone="no"?>
<!DOCTYPE svg PUBLIC "-//W3C//DTD SVG 1.1//EN" "http://www.w3.org/Graphics/SVG/1.1/DTD/svg11.dtd">
<svg width="100%" height="100%" viewBox="0 0 2048 2048" version="1.1" xmlns="http://www.w3.org/2000/svg" xmlns:xlink="http://www.w3.org/1999/xlink" xml:space="preserve" xmlns:serif="http://www.serif.com/" style="fill-rule:evenodd;clip-rule:evenodd;stroke-linejoin:round;stroke-miterlimit:2;">
    <g id="Blender" transform="matrix(4.09789,0,0,4.09789,1024,1024)">
        <g id="Softwares">
            <g id="Blender1" serif:id="Blender" transform="matrix(1,0,0,1,-249.885,-202.99)">
                <clipPath id="_clip1">
                    <rect x="0" y="0" width="499.77" height="405.98"/>
                </clipPath>
                <g clip-path="url(#_clip1)">
                    <path d="M196.49,225.35C198.31,192.86 214.22,164.24 238.22,143.95C261.76,124.03 293.44,111.85 328,111.85C362.56,111.85 394.21,124 417.77,144C441.77,164.29 457.66,192.91 459.5,225.37C461.32,258.75 447.9,289.76 424.36,312.74C400.36,336.12 366.23,350.8 328,350.8C289.77,350.8 255.57,336.12 231.59,312.74C208,289.71 194.66,258.7 196.49,225.35Z" style="fill:white;fill-rule:nonzero;"/>
                    <path d="M260.53,228.27C261.46,211.6 269.63,196.91 281.94,186.5C308.621,164.622 347.389,164.622 374.07,186.5C386.37,196.91 394.54,211.6 395.48,228.25C396.41,245.38 389.48,261.25 377.48,273.08C365.17,285.08 347.65,292.61 328.04,292.61C308.43,292.61 290.88,285.08 278.57,273.08C266.45,261.29 259.59,245.38 260.53,228.27Z" style="fill:rgb(38,87,135);fill-rule:nonzero;"/>
                    <path d="M153.08,262C153.19,268.52 155.27,281.2 158.39,291.1C165.13,312.425 176.448,332.023 191.55,348.52C207.741,366.329 227.505,380.528 249.55,390.19C298.152,411.397 353.485,411.285 402,389.88C424.045,380.123 443.803,365.856 460,348C475.081,331.448 486.392,311.818 493.15,290.47C496.431,280.036 498.525,269.264 499.39,258.36C500.216,247.722 499.881,237.025 498.39,226.46C495.464,205.904 488.258,186.189 477.24,168.59C467.024,152.223 453.957,137.818 438.66,126.06L282.5,6.2C282.36,6.09 282.24,5.98 282.09,5.88C271.85,-1.98 254.62,-1.95 243.36,5.88C232.1,13.71 230.67,27.02 240.8,35.34L305.91,88.34L107.45,88.55L107.18,88.55C90.74,88.61 75,99.37 71.85,113C68.64,126.86 79.78,138.36 96.85,138.42L96.85,138.48L197.45,138.29L17.9,276L17.21,276.51C0.28,289.52 -5.2,311.08 5.47,324.73C16.29,338.6 39.31,338.63 56.47,324.81L154.47,244.63C153.675,250.389 153.211,256.188 153.08,262ZM404.82,298.2C384.64,318.76 356.38,330.42 325.82,330.48C295.26,330.54 266.93,318.98 246.75,298.48C237.21,288.904 229.849,277.381 225.17,264.7C220.76,252.638 219.053,239.754 220.17,226.96C221.239,214.474 224.929,202.353 231,191.39C237.098,180.425 245.246,170.732 255,162.84C274.62,146.84 299.6,138.19 325.73,138.16C351.86,138.13 376.85,146.7 396.49,162.64C406.244,170.497 414.392,180.16 420.49,191.1C426.562,202.046 430.263,214.149 431.35,226.62C432.46,239.407 430.753,252.284 426.35,264.34C421.685,277.04 414.342,288.588 404.82,298.2Z" style="fill:rgb(234,118,0);fill-rule:nonzero;"/>
                </g>
            </g>
            <g id="Blender2" serif:id="Blender">
            </g>
        </g>
    </g>
</svg>
