<?xml version="1.0" encoding="UTF-8" standalone="no"?>
<!DOCTYPE svg PUBLIC "-//W3C//DTD SVG 1.1//EN" "http://www.w3.org/Graphics/SVG/1.1/DTD/svg11.dtd">
<svg width="100%" height="100%" viewBox="0 0 2048 2048" version="1.1" xmlns="http://www.w3.org/2000/svg" xmlns:xlink="http://www.w3.org/1999/xlink" xml:space="preserve" xmlns:serif="http://www.serif.com/" style="fill-rule:evenodd;clip-rule:evenodd;stroke-linejoin:round;stroke-miterlimit:2;">
    <g id="Unreal" transform="matrix(2.98694,0,0,2.98694,-170.776,-170.776)">
        <g id="Softwares">
            <path id="Unreal1" serif:id="Unreal" d="M408.666,708.006C398.386,706.577 378.683,702.16 364.146,698.063C298.534,679.583 244.74,647.251 210.763,605.891C205.62,599.634 198.991,590.554 199.323,590.229C199.323,590.229 202.466,590.28 206.06,590.8C213.711,591.543 223.746,591.371 228.169,590C237.843,587.429 243.843,581.229 245.38,572.211C245.951,569.869 245.951,533.274 245.951,444.709L245.951,320.514L244.523,316.457C241.094,306.811 235.574,302.697 224.323,301.451C218.311,300.766 210.083,304.023 199.454,311.194C160.831,337.309 110.797,401.177 61.346,487.503C59.117,491.389 57.231,494.514 57.174,494.446C57.174,494.446 57.174,489.131 57.746,482.806C60.889,404.92 94.454,323.36 153.517,250.149C167.9,232.314 189.591,209.263 206.58,193.743C261.5,143.566 322.174,108.869 383.226,92.731L388.14,91.417L386.54,92.789C385.683,93.589 381.626,97.074 377.557,100.611C369.243,107.84 354.883,121.971 348.163,129.549C330.489,149.48 320.026,167.211 317.877,180.869C316.677,188.554 317.877,205.594 320.734,215.566C323.877,227.4 329.7,235.051 337.814,238.04C340.1,238.897 341.986,239.126 345.711,239.126C351.311,239.12 355.374,238.154 361.009,235.583L364.723,233.869L364.723,547.771L366.38,551.2C371.123,560.874 382.311,565.149 404.649,565.851C415.746,566.423 419.351,565.851 427.831,563.109C441.534,558.766 458.357,550.2 477.283,537.926L482.711,534.383L482.717,406.246C482.723,268.606 482.717,275.297 480.146,267.229C475.346,252.737 460.146,232.337 441.843,215.8L435.866,210.429L438.837,210.429C443.237,210.429 454.266,211.743 461.871,213.629C476.34,217.286 491.214,223.783 502.58,231.451L506.294,233.966L507.609,231.737C509.723,228.08 515.426,221.211 520.974,215.543C550.837,185.046 598.591,159.971 660.614,142.217C666.1,140.674 670.791,139.36 671.037,139.36C671.037,139.36 668.409,143.474 664.631,148.486C642.529,177.914 621.894,209.846 611.369,230.897C605.997,241.611 603.494,248 602.334,253.783C601.363,258.697 600.563,528.103 601.477,531.634C603.191,537.966 610.38,541.6 622.591,542.32C628.831,542.891 634.843,541.691 643.803,538.72C675.191,528.406 706.386,508.263 734.003,480.469L742.826,471.594L742.197,474.051C740.254,481.451 732.546,495.491 720.597,513.503C683.123,570 629.911,627.749 579.671,666.457C571.18,673 554.831,684.491 554.014,684.491C553.443,684.491 537.523,668.583 518.066,649.137C487.849,618.943 482.591,613.897 482.066,614.589C481.494,615.16 465.746,636.383 446.563,662.029C427.374,687.674 411.409,708.629 411.077,708.583C410.506,708.543 409.763,708.583 408.963,708.011L408.666,708.006Z" style="fill:white;fill-rule:nonzero;"/>
        </g>
    </g>
</svg>
