<?xml version="1.0" encoding="UTF-8" standalone="no"?>
<!DOCTYPE svg PUBLIC "-//W3C//DTD SVG 1.1//EN" "http://www.w3.org/Graphics/SVG/1.1/DTD/svg11.dtd">
<svg width="100%" height="100%" viewBox="0 0 2048 2048" version="1.1" xmlns="http://www.w3.org/2000/svg" xmlns:xlink="http://www.w3.org/1999/xlink" xml:space="preserve" xmlns:serif="http://www.serif.com/" style="fill-rule:evenodd;clip-rule:evenodd;stroke-linejoin:round;stroke-miterlimit:2;">
    <g id="Softwares">
        <g id="Pt">
            <g transform="matrix(3.99633,0,0,4.09879,0,0)">
                <rect x="0" y="0" width="512.47" height="499.66" style="fill:rgb(30,49,1);fill-rule:nonzero;"/>
            </g>
            <g transform="matrix(3.99633,0,0,3.99633,0,38.3249)">
                <path d="M110.85,350.39L110.85,130.71C110.85,129.11 111.53,128.31 112.91,128.31C116.57,128.31 120.923,128.253 125.97,128.14C131.017,128.027 136.46,127.91 142.3,127.79L160.87,127.45C167.403,127.33 173.877,127.27 180.29,127.27C197.71,127.27 212.377,129.45 224.29,133.81C235.046,137.441 244.856,143.431 253,151.34C259.904,158.194 265.241,166.465 268.64,175.58C271.859,184.449 273.49,193.815 273.46,203.25C273.46,221.59 269.22,236.717 260.74,248.63C252.205,260.603 240.204,269.678 226.36,274.63C210.93,280.181 194.627,282.918 178.23,282.71C173.183,282.71 169.63,282.65 167.57,282.53C165.51,282.42 162.41,282.36 158.29,282.36L158.29,350.09C158.497,351.573 157.452,352.965 155.97,353.18C155.715,353.22 155.455,353.22 155.2,353.18L113.25,353.18C111.65,353.14 110.85,352.23 110.85,350.39ZM158.29,169.56L158.29,240.73C161.263,240.963 164.013,241.077 166.54,241.07L177.88,241.07C186.201,241.19 194.491,240.03 202.46,237.63C209.271,235.607 215.36,231.671 220,226.29C224.467,221.023 226.7,213.69 226.7,204.29C226.873,197.642 225.138,191.082 221.7,185.39C218.073,179.877 212.834,175.613 206.7,173.18C198.71,170.079 190.176,168.62 181.61,168.89C176.11,168.89 171.24,168.947 167,169.06C162.76,169.173 159.837,169.343 158.23,169.57L158.29,169.56Z" style="fill:rgb(153,232,63);fill-rule:nonzero;"/>
            </g>
            <g transform="matrix(3.99633,0,0,3.99633,0,21.4873)">
                <path d="M401,319.11L401,347.3C401,349.82 400.083,351.31 398.25,351.77C393.737,353.18 389.146,354.329 384.5,355.21C379.055,356.18 373.531,356.638 368,356.58C353.1,356.58 341.413,352.683 332.94,344.89C324.467,337.097 320.227,324.607 320.22,307.42L320.22,222.16L299.92,222.16C298.09,222.16 297.17,221.16 297.17,219.07L297.17,185C297.17,183.17 298.17,182.25 300.27,182.25L320.55,182.25C320.777,178.357 321.063,173.83 321.41,168.67C321.76,163.52 322.21,158.36 322.79,153.2C323.37,148.04 323.87,143.86 324.33,140.66C324.549,139.976 324.888,139.336 325.33,138.77C325.776,138.211 326.373,137.79 327.05,137.56L368,132.44C368.622,132.256 369.288,132.287 369.89,132.53C370.35,132.76 370.41,133.36 370.41,134.53C369.95,139.803 369.617,146.967 369.41,156.02C369.203,165.073 368.973,173.837 368.72,182.31L400.72,182.31C402.1,182.31 402.79,183.23 402.79,185.06L402.79,219.79C402.959,220.916 402.191,221.988 401.07,222.19L368.34,222.19L368.34,295.76C368.34,303.56 369.673,309.12 372.34,312.44C375.007,315.76 379.877,317.427 386.95,317.44C389.01,317.44 390.95,317.39 392.8,317.27C394.65,317.15 396.46,316.98 398.3,316.75C398.923,316.52 399.618,316.582 400.19,316.92C400.814,317.464 401.119,318.291 401,319.11Z" style="fill:rgb(153,232,63);fill-rule:nonzero;"/>
            </g>
        </g>
    </g>
</svg>
