<?xml version="1.0" encoding="UTF-8" standalone="no"?>
<!DOCTYPE svg PUBLIC "-//W3C//DTD SVG 1.1//EN" "http://www.w3.org/Graphics/SVG/1.1/DTD/svg11.dtd">
<svg width="100%" height="100%" viewBox="0 0 2048 2048" version="1.1" xmlns="http://www.w3.org/2000/svg" xmlns:xlink="http://www.w3.org/1999/xlink" xml:space="preserve" xmlns:serif="http://www.serif.com/" style="fill-rule:evenodd;clip-rule:evenodd;stroke-linejoin:round;stroke-miterlimit:2;">
    <g transform="matrix(4.57143,0,0,4.57143,-146.286,-146.286)">
        <path d="M453.8,407.1C429.9,432.4 401.5,450.9 368.6,462.5C335.7,474.2 301,480 264.5,480C229.6,480 197.8,474.5 169.2,463.4C140.6,452.4 116.1,437 95.9,417.3C75.6,397.6 59.9,374 48.7,346.5C37.5,319 32,289 32,256.5C32,224.4 38.1,194.7 50.3,167.4C62.5,140.1 79.1,116.4 100.2,96.3C121.3,76.2 145.9,60.5 174.2,49C202.3,37.7 232.5,32 264.5,32C292.1,32 318.9,36 344.8,44C370.8,52 393.8,64.1 413.9,80.1C434,96.2 450,116.2 462,140.3C474,164.4 480,192.7 480,225.2C480,249.3 476.7,270.6 470,289C463.3,307.5 454.4,322.9 443.2,335.4C432,347.9 419.3,357.2 404.9,363.4C390.5,369.6 375.4,372.7 359.6,372.7C343.4,372.7 330.4,368.9 320.6,361.3C310.9,353.7 306,344 306,332.4L303,332.4C296.9,342 287.6,351.2 275,359.8C262.4,368.4 247,372.8 228.7,372.8C201.1,372.8 179.8,363.8 164.8,345.7C149.8,327.6 142.3,304.2 142.3,275.2C142.3,258.3 145.1,241.7 150.8,225.2C156.5,208.7 164.6,194.1 175.1,181.2C185.6,168.4 198.2,158 212.8,150.2C227.4,142.4 243.6,138.5 261.5,138.5C276.9,138.5 289.9,141.7 300.5,148.1C311,154.5 317.9,162.4 321.2,171.6L321.8,171.6L326.7,147.5L380.9,147.5L357,261.4C356.2,267 355.1,273.2 353.7,280.1C352.3,286.9 351.6,293.3 351.6,299.4C351.6,306.2 352.9,311.9 355.6,316.6C358.2,321.2 363.4,323.5 371.1,323.5C386.9,323.5 400,315.1 410.4,298.2C420.7,281.3 425.9,258.7 425.9,230.2C425.9,206.1 421.8,184.7 413.7,166.1C405.6,147.4 394.3,131.8 379.9,119.1C365.5,106.5 348.3,96.9 328.5,90.5C308.6,84.1 286.9,80.9 263.4,80.9C237.8,80.9 214.4,85.4 193.1,94.4C171.8,103.4 153.6,115.9 138.6,131.7C123.6,147.6 111.9,166.2 103.6,187.7C95.2,209.1 91,232.3 91,257.2C91,283.7 95.4,307.6 104.1,328.9C112.8,350.2 125.1,368.3 140.9,383.4C156.7,398.5 175.6,410 197.5,418C219.4,426 243.6,430 269.9,430C302.8,430 331.1,424.8 354.8,414.3C378.5,403.9 400.3,389.4 420.2,370.9L453.8,407.1ZM263.3,188C253.6,188 245,190.8 237.7,196.4C230.4,202 224.2,209.1 219.1,217.8C214,226.4 210.2,236 207.5,246.4C204.9,256.8 203.5,266.9 203.5,276.5C203.5,281.3 204,286.4 205,291.9C206,297.3 208,302.3 211.1,307C214.1,311.6 218.1,315.4 223,318.4C227.9,321.4 234.4,322.9 242.5,322.9C253.5,322.9 262.8,320.2 270.5,314.8C278.2,309.4 284.5,302.6 289.4,294.3C294.3,286.1 297.8,277.1 300.1,267.5C302.3,257.9 303.4,249 303.4,241C303.4,234.6 302.8,228.3 301.6,222C300.4,215.8 298.3,210.2 295.2,205.1C292.2,200.1 288,196 282.7,192.8C277.5,189.6 271,188 263.3,188Z" style="fill:white;fill-rule:nonzero;"/>
    </g>
</svg>
