<?xml version="1.0" encoding="UTF-8" standalone="no"?>
<!DOCTYPE svg PUBLIC "-//W3C//DTD SVG 1.1//EN" "http://www.w3.org/Graphics/SVG/1.1/DTD/svg11.dtd">
<svg width="100%" height="100%" viewBox="0 0 2048 2048" version="1.1" xmlns="http://www.w3.org/2000/svg" xmlns:xlink="http://www.w3.org/1999/xlink" xml:space="preserve" xmlns:serif="http://www.serif.com/" style="fill-rule:evenodd;clip-rule:evenodd;stroke-linejoin:round;stroke-miterlimit:2;">
    <g id="LinkedIn">
        <g transform="matrix(64,0,0,64,0,0)">
            <rect x="0" y="9" width="7" height="23" style="fill:white;"/>
        </g>
        <g transform="matrix(64,0,0,64,0,0)">
            <path d="M24.003,9C20,9 18.89,10.312 18,12L18,9L11,9L11,32L18,32L18,19C18,17 18,15 21.5,15C25,15 25,17 25,19L25,32L32,32L32,19C32,13 31,9 24.003,9Z" style="fill:white;fill-rule:nonzero;"/>
        </g>
        <g transform="matrix(64,0,0,64,0,0)">
            <circle cx="3.5" cy="3.5" r="3.5" style="fill:white;"/>
        </g>
    </g>
</svg>
